<?xml version="1.0" encoding="UTF-8" standalone="no"?>
<!-- Created with Inkscape (http://www.inkscape.org/) -->

<svg
   xmlns:dc="http://purl.org/dc/elements/1.1/"
   xmlns:cc="http://creativecommons.org/ns#"
   xmlns:rdf="http://www.w3.org/1999/02/22-rdf-syntax-ns#"
   xmlns:svg="http://www.w3.org/2000/svg"
   xmlns="http://www.w3.org/2000/svg"
   version="1.1"
   width="1052.3625"
   height="744.09998"
   id="svg2"
   xml:space="preserve"><metadata
     id="metadata8"><rdf:RDF><cc:Work
         rdf:about=""><dc:format>image/svg+xml</dc:format><dc:type
           rdf:resource="http://purl.org/dc/dcmitype/StillImage" /><dc:title></dc:title></cc:Work></rdf:RDF></metadata><defs
     id="defs6"><linearGradient
       x1="0"
       y1="0"
       x2="1"
       y2="0"
       id="linearGradient24"
       gradientUnits="userSpaceOnUse"
       gradientTransform="matrix(74.572044,27.142004,27.142004,-74.572044,252.84961,309.34961)"
       spreadMethod="pad"><stop
         id="stop26"
         style="stop-color:#6464f9;stop-opacity:1"
         offset="0" /><stop
         id="stop28"
         style="stop-color:#ed338c;stop-opacity:1"
         offset="1" /></linearGradient><linearGradient
       x1="0"
       y1="0"
       x2="1"
       y2="0"
       id="linearGradient44"
       gradientUnits="userSpaceOnUse"
       gradientTransform="matrix(150.30325,126.11942,126.11942,-150.30325,216.86572,256.24414)"
       spreadMethod="pad"><stop
         id="stop46"
         style="stop-color:#6464f9;stop-opacity:1"
         offset="0" /><stop
         id="stop48"
         style="stop-color:#ed338c;stop-opacity:1"
         offset="1" /></linearGradient><clipPath
       id="clipPath56"><path
         d="m 0,595.28 841.89,0 L 841.89,0 0,0 0,595.28 z"
         id="path58" /></clipPath></defs><g
     transform="matrix(1.25,0,0,-1.25,0,744.1)"
     id="g10"><g
       id="g12"><g
         id="g14"><g
           id="g20"><g
             id="g22"><path
               d="m 274.839,361.477 0,-83.436 c 0,-3.641 2.955,-6.607 6.599,-6.607 l 0,0 c 3.654,0 6.605,2.966 6.605,6.607 l 0,0 0,83.436 c 0,3.639 -2.951,6.601 -6.605,6.601 l 0,0 c -3.644,0 -6.599,-2.962 -6.599,-6.601 m 21.142,-18.636 0,-46.163 c 0,-3.652 2.946,-6.61 6.597,-6.61 l 0,0 c 3.65,0 6.603,2.958 6.603,6.61 l 0,0 0,46.163 c 0,3.648 -2.953,6.602 -6.603,6.602 l 0,0 c -3.651,0 -6.597,-2.954 -6.597,-6.602 m -42.275,-11.501 0,-23.175 c 0,-3.642 2.948,-6.598 6.598,-6.598 l 0,0 c 3.646,0 6.599,2.956 6.599,6.598 l 0,0 0,23.175 c 0,3.65 -2.953,6.604 -6.599,6.604 l 0,0 c -3.65,0 -6.598,-2.954 -6.598,-6.604 m 63.414,-4.001 0,-15.17 c 0,-3.641 2.952,-6.598 6.599,-6.598 l 0,0 c 3.652,0 6.608,2.957 6.608,6.598 l 0,0 0,15.17 c 0,3.649 -2.956,6.602 -6.608,6.602 l 0,0 c -3.647,0 -6.599,-2.953 -6.599,-6.602"
               id="path30"
               style="fill:url(#linearGradient24);stroke:none" /></g></g></g></g><g
       id="g32"><g
         id="g34"><g
           id="g40"><g
             id="g42"><path
               d="m 292.015,403.781 0,-0.001 c -18.364,0 -36.734,0.234 -50.739,-4.143 l 0,0 C 227.275,395.26 216.641,386.578 211.67,370.045 l 0,0 c -4.38,-14.006 -4.061,-32.376 -4.061,-50.738 l 0,0 c 0,-18.365 -0.319,-36.743 4.061,-50.746 l 0,0 c 4.971,-16.53 15.605,-25.217 29.606,-29.597 l 0,0 c 14.005,-4.377 32.375,-4.145 50.739,-4.145 l 0,0 0,0.003 c 18.367,0 36.736,-0.234 50.741,4.142 l 0,0 c 14.002,4.382 24.637,13.067 29.61,29.597 l 0,0 c 4.373,14.003 4.058,32.385 4.058,50.749 l 0,0 c 0,18.359 0.315,36.737 -4.058,50.735 l 0,0 c -4.973,16.537 -15.608,25.216 -29.61,29.595 l 0,0 c -12.65,3.951 -28.866,4.143 -45.418,4.143 l 0,0 c -1.773,0 -3.545,-0.002 -5.323,-0.002 M 243.668,246.613 c -13.001,4.072 -20.506,11.547 -24.321,24.256 l 0,0 c -3.765,12.029 -3.747,28.014 -3.728,44.935 l 0,0 0,7.004 c -0.019,16.919 -0.037,32.903 3.7,44.845 l 0,0 c 3.843,12.789 11.348,20.269 24.349,24.338 l 0,0 c 11.184,3.494 26.099,3.781 43.021,3.781 l 0,0 10.655,0 c 16.922,0 31.837,-0.285 43.018,-3.781 l 0,0 c 13.006,-4.066 20.508,-11.549 24.33,-24.254 l 0,0 c 3.757,-12.026 3.736,-28.009 3.721,-44.928 l 0,0 0,-6.997 c 0.015,-16.927 0.036,-32.911 -3.7,-44.855 l 0,0 c -3.843,-12.79 -11.345,-20.272 -24.351,-24.343 l 0,0 c -11.181,-3.499 -26.096,-3.78 -43.018,-3.78 l 0,0 -10.655,-0.001 c -16.922,0 -31.837,0.281 -43.021,3.78"
               id="path50"
               style="fill:url(#linearGradient44);stroke:none" /></g></g></g></g><g
       id="g52"><g
         clip-path="url(#clipPath56)"
         id="g54"><g
           transform="translate(434.2969,351.6982)"
           id="g60"><path
             d="m 0,0 -11.957,-24.669 c -0.695,-1.362 -2.088,-2.321 -3.736,-2.321 l -0.026,0 c -1.647,0 -3.039,0.959 -3.739,2.321 L -31.419,0 c -0.618,1.186 -0.352,2.548 2.165,3.866 2.52,1.317 3.795,0.756 4.412,-0.427 l 9.134,-20.027 9.14,20.027 c 0.615,1.183 1.89,1.744 4.41,0.427 C 0.359,2.548 0.625,1.186 0,0 m 71.305,-4.514 0.002,-0.011 c -1.428,1.126 -3.223,1.8 -5.184,1.8 -4.652,0 -8.437,-3.796 -8.437,-8.484 0,-4.686 3.785,-8.486 8.437,-8.486 1.957,0 3.756,0.678 5.184,1.8 l -0.002,-0.011 c 1.045,0.845 2.459,0.779 4.263,-1.469 1.719,-2.14 1.522,-3.513 0.598,-4.37 -2.75,-2.227 -6.238,-3.568 -10.043,-3.568 -8.842,0 -16.006,7.209 -16.006,16.104 0,8.899 7.164,16.106 16.006,16.106 3.805,0 7.293,-1.339 10.043,-3.573 0.93,-0.855 1.121,-2.227 -0.598,-4.364 -1.804,-2.248 -3.218,-2.316 -4.263,-1.474 m -26.117,6.62 0,-26.571 c 0,-1.347 -0.875,-2.444 -3.739,-2.444 -2.865,0 -3.744,1.097 -3.744,2.444 l 0,26.571 c 0,1.349 0.879,2.443 3.744,2.443 2.864,0 3.739,-1.094 3.739,-2.443 m 60.833,-23.852 0,-2.719 c 0,-1.347 -0.304,-2.444 -3.166,-2.444 l -17.384,0 c -2.862,0 -3.739,1.097 -3.739,2.444 l 0,26.573 c 0,1.347 0.875,2.441 3.739,2.441 l 17.383,0 c 2.861,0 3.167,-1.094 3.167,-2.441 l 0,-2.678 c 0,-1.344 -0.306,-2.443 -3.167,-2.443 l -13.659,0 0,-4.346 6.758,0 c 2.861,0 3.174,-1.089 3.174,-2.44 l 0,-2.721 c 0,-1.347 -0.313,-2.443 -3.172,-2.443 l -6.76,0 0,-4.34 13.659,0 c 2.859,0 3.167,-1.095 3.167,-2.443 m -88.607,2.102 c -4.484,0 -8.117,3.799 -8.117,8.487 0,4.687 3.633,8.482 8.117,8.482 4.482,0 8.117,-3.795 8.117,-8.482 0,-4.688 -3.635,-8.487 -8.117,-8.487 m 0,24.593 c -8.508,0 -15.402,-7.213 -15.402,-16.106 0,-8.897 6.894,-16.104 15.402,-16.104 8.51,0 15.408,7.207 15.408,16.104 0,8.893 -6.898,16.106 -15.408,16.106"
             id="path62"
             style="fill:#ed338c;fill-opacity:1;fill-rule:nonzero;stroke:none" /></g><g
           transform="translate(557.7246,338.0654)"
           id="g64"><path
             d="M 0,0 3.148,7.06 6.297,0 0,0 z M 6.809,15.952 C 6.119,17.313 4.758,18.27 3.146,18.27 l -0.021,0 c -1.615,0 -2.979,-0.957 -3.656,-2.318 L -12.246,-8.722 c -0.602,-1.185 -0.336,-2.549 2.125,-3.865 2.461,-1.318 3.91,-0.777 4.576,0.173 l 2.705,6.051 11.979,0 2.59,-5.795 c 0.753,-1.206 2.199,-1.747 4.66,-0.429 2.463,1.316 2.724,2.68 2.117,3.865 L 6.809,15.952 z M 67.557,3.963 C 66.732,3.327 65.895,3.013 65.043,3.013 l -5.354,0 0,7.607 5.317,0 c 0.873,0 1.726,-0.321 2.551,-0.971 0.82,-0.638 1.228,-1.592 1.228,-2.858 0,-1.254 -0.408,-2.205 -1.228,-2.828 m 7.593,7.903 c -0.728,1.517 -1.675,2.719 -2.837,3.61 -2.352,1.837 -4.782,2.753 -7.27,2.753 l -9.088,0 c -0.498,0 -0.725,-0.032 -0.82,-0.086 -2.24,-0.188 -2.963,-1.187 -2.963,-2.404 l 0,-26.571 c 0,-1.348 0.879,-2.445 3.742,-2.445 2.857,0 3.775,1.097 3.775,2.445 l 0,6.239 5.317,0 c 2.517,0 4.955,0.918 7.307,2.748 1.162,0.888 2.109,2.089 2.837,3.589 0.743,1.503 1.114,3.187 1.114,5.047 0,1.867 -0.371,3.559 -1.114,5.075 M 38.561,3.963 c -0.827,-0.636 -1.663,-0.95 -2.51,-0.95 l -5.358,0 0,7.607 5.317,0 c 0.875,0 1.724,-0.321 2.551,-0.971 0.816,-0.638 1.23,-1.592 1.23,-2.858 0,-1.254 -0.414,-2.205 -1.23,-2.828 m 4.753,11.513 c -2.349,1.837 -4.777,2.753 -7.263,2.753 l -9.1,0 c -0.492,0 -0.719,-0.032 -0.814,-0.086 -2.241,-0.188 -2.965,-1.187 -2.965,-2.404 l 0,-26.571 c 0,-1.348 0.881,-2.445 3.748,-2.445 2.857,0 3.773,1.097 3.773,2.445 l 0,6.239 5.317,0 c 2.515,0 4.955,0.918 7.304,2.748 1.165,0.888 2.112,2.089 2.844,3.589 0.74,1.503 1.113,3.187 1.113,5.047 0,1.867 -0.373,3.559 -1.113,5.075 -0.732,1.517 -1.679,2.719 -2.844,3.61"
             id="path66"
             style="fill:#1d2730;fill-opacity:1;fill-rule:nonzero;stroke:none" /></g><g
           transform="translate(589.8262,311.6719)"
           id="g68"><path
             d="m 0,0 c 0,0.918 -0.617,1.801 -1.873,2.637 -1.246,0.859 -2.133,1.27 -2.674,1.27 -0.537,0 -0.961,-0.114 -1.273,-0.339 C -6.301,3.252 -6.812,2.666 -7.354,1.811 l -6.584,-10.665 -6.583,10.665 c -0.54,0.855 -1.051,1.441 -1.532,1.757 -0.314,0.225 -0.736,0.339 -1.273,0.339 -0.543,0 -1.43,-0.411 -2.676,-1.27 -1.254,-0.836 -1.871,-1.719 -1.871,-2.637 0,-0.544 0.32,-1.305 0.978,-2.273 l 9.221,-13.889 0,-9.622 c 0,-1.347 0.881,-2.444 3.736,-2.444 2.87,0 3.747,1.097 3.747,2.444 l -0.01,9.622 9.222,13.889 C -0.322,-1.305 0,-0.544 0,0 m -64.104,2.666 c -0.242,0.2 -0.605,0.368 -1.105,0.512 -0.49,0.145 -1.143,0.218 -1.955,0.218 -0.803,0 -1.479,-0.087 -2.018,-0.261 -0.527,-0.164 -0.912,-0.498 -1.189,-0.98 l 0,-0.002 c 0,-0.006 -0.01,-0.016 -0.02,-0.028 -0.005,-0.005 -0.007,-0.02 -0.015,-0.032 -0.27,-0.377 -0.389,-0.821 -0.389,-1.303 l 0,-1.052 0,-14.523 c -2.018,2.628 -6.004,8.062 -11.984,16.292 -0.541,0.656 -0.864,1.028 -0.979,1.113 -0.199,0.204 -0.543,0.381 -1.037,0.541 -0.498,0.158 -1.172,0.235 -2.018,0.235 -0.855,0 -1.542,-0.087 -2.085,-0.261 -0.526,-0.164 -0.913,-0.498 -1.186,-0.98 l 0,-0.002 C -90.088,2.147 -90.102,2.137 -90.104,2.125 -90.113,2.12 -90.113,2.105 -90.117,2.093 -90.395,1.716 -90.51,1.272 -90.51,0.79 l 0,-26.574 c 0,-1.347 0.879,-2.444 3.737,-2.444 2.867,0 3.746,1.097 3.746,2.444 l -0.006,15.48 10.367,-13.721 c 0.713,-0.942 1.447,-1.933 2.211,-2.974 0.055,-0.063 0.123,-0.119 0.182,-0.181 l 0.214,-0.286 c 0.577,-0.47 1.522,-0.762 3.012,-0.762 2.858,0 3.736,1.097 3.736,2.444 l 0,1.504 0,23.852 0,1.218 c 0,0.485 -0.127,0.937 -0.404,1.318 -0.105,0.223 -0.224,0.423 -0.389,0.558 m -104.354,-17.446 -3.155,7.057 -3.149,-7.057 6.304,0 z m 12.206,-8.719 c 0.604,-1.187 0.338,-2.55 -2.121,-3.87 -2.463,-1.317 -3.902,-0.776 -4.662,0.426 l -2.582,5.801 -11.985,0 -2.702,-6.064 c -0.663,-0.939 -2.117,-1.48 -4.579,-0.163 -2.462,1.32 -2.725,2.683 -2.118,3.87 l 11.704,24.671 c 0.683,1.361 2.046,2.324 3.661,2.324 l 0.023,0 c 1.607,0 2.97,-0.963 3.656,-2.324 l 11.705,-24.671 z m 26.082,14.43 -5.934,0 c -0.847,0 -1.533,-0.131 -2.037,-0.384 -0.347,-0.173 -0.58,-0.494 -0.701,-0.95 -0.129,-0.456 -0.191,-1.068 -0.191,-1.828 0,-0.033 0.002,-0.05 0.002,-0.081 0,-0.027 -0.002,-0.053 -0.002,-0.073 0,-0.761 0.047,-1.36 0.166,-1.81 0.113,-0.442 0.351,-0.78 0.726,-1.001 0.362,-0.234 0.987,-0.35 1.866,-0.35 l 1.814,0 0,-4.526 c -1.246,-0.513 -2.648,-0.774 -4.207,-0.774 -2.152,0 -4.082,0.863 -5.781,2.605 -1.684,1.712 -2.524,3.783 -2.547,6.229 0.023,2.446 0.85,4.425 2.512,5.943 1.662,1.528 3.576,2.299 5.732,2.299 1.643,0 3.057,-0.395 4.246,-1.183 1.192,-0.788 2.053,-1.187 2.592,-1.187 0.908,0 1.91,0.761 3.018,2.285 0.65,0.913 0.974,1.726 0.974,2.429 0,0.022 -0.006,0.043 -0.006,0.066 0,0.028 0.006,0.066 0.006,0.088 0,0.71 -0.381,1.343 -1.146,1.918 -2.973,2.235 -6.127,3.35 -9.473,3.35 -4.301,0 -8.047,-1.521 -11.217,-4.57 -3.176,-3.05 -4.76,-6.859 -4.76,-11.414 0,-0.029 0.002,-0.056 0.002,-0.086 0,-0.028 -0.002,-0.046 -0.002,-0.075 0,-4.554 1.553,-8.446 4.674,-11.669 3.112,-3.228 6.783,-4.839 11.006,-4.839 4.758,0 8.33,1.246 10.707,3.739 0.791,0.835 1.188,1.708 1.188,2.631 l 0,0.154 0,9.299 0,0.158 c 0,1.06 -0.143,1.862 -0.426,2.402 -0.338,0.748 -1.276,1.144 -2.801,1.205 m 97.258,4.74 c 1.726,2.149 1.533,3.527 0.599,4.387 -2.763,2.245 -6.271,3.592 -10.093,3.592 -8.891,0 -16.09,-7.244 -16.09,-16.192 0,-8.942 7.199,-16.189 16.09,-16.189 3.822,0 7.33,1.349 10.093,3.586 0.93,0.863 1.127,2.244 -0.599,4.394 -1.815,2.26 -3.236,2.326 -4.287,1.477 l 0.002,0.011 c -1.436,-1.127 -3.244,-1.81 -5.209,-1.81 -4.678,0 -8.483,3.821 -8.483,8.531 0,4.713 3.805,8.529 8.483,8.529 1.968,0 3.773,-0.677 5.209,-1.81 l -0.002,0.011 c 1.051,-0.846 2.472,-0.778 4.287,1.483 m -80.703,0.157 0,-4.375 6.801,0 c 2.88,0 3.197,-1.097 3.197,-2.456 l 0,-2.738 c 0,-1.356 -0.317,-2.46 -3.194,-2.46 l -6.804,0 0,-4.367 13.748,0 c 2.879,0 3.187,-1.103 3.187,-2.459 l 0.002,-2.74 c 0,-1.355 -0.308,-2.46 -3.187,-2.46 l -17.5,0 c -2.879,0 -3.764,1.105 -3.764,2.46 l 0,26.751 c 0,1.357 0.883,2.456 3.764,2.456 l 17.498,0 c 2.879,0 3.189,-1.099 3.189,-2.456 l -0.002,-2.696 c 0,-1.351 -0.308,-2.46 -3.187,-2.46 l -13.748,0 z"
             id="path70"
             style="fill:#1d2730;fill-opacity:1;fill-rule:nonzero;stroke:none" /></g></g></g></g></svg>